<svg xmlns="http://www.w3.org/2000/svg" xmlns:xlink="http://www.w3.org/1999/xlink" viewBox="0 0 722 567.45"><defs><style>.cls-1{fill:none;}.cls-2{clip-path:url(#clip-path);}.cls-3{fill:#00c853;}</style><clipPath id="clip-path"><circle class="cls-1" cx="361.5" cy="312.5" r="118.5"/></clipPath></defs><title>Recurso 6</title><g id="Capa_2" data-name="Capa 2"><g id="Capa_1-2" data-name="Capa 1"><path d="M685.84,95.56H533.58l-5.1-36-3.91-24.29c-1.58-9.78-6.76-17.89-14.89-24.67C501.36,3.63,492.45,0,482.66,0H237.49q-14.69,0-27,10.57a39.83,39.83,0,0,0-14.09,24.67l-3.92,24.29-5.48,36H36.16C16.12,95.56,0,111.66,0,130.9V531.3a36.15,36.15,0,0,0,36.15,36.15H685.84A36.16,36.16,0,0,0,722,531.29V130.9C722,111.66,705.88,95.56,685.84,95.56ZM678.35,523.8H43.65V138H187.1c21.62,0,40.29-15.89,43.24-36.51l5.1-35.73,3.93-22.14H483.05l3.54,22.14,5.5,35.73c3.17,20.58,22,36.51,42.85,36.51H678.35V523.8Z"/><path d="M608.08,241.2c18.86,0,34.58-16.11,34.58-35,0-19.26-15.33-35.38-34.58-35.38S573.49,187,573.49,206.23C573.49,225.09,589.21,241.2,608.08,241.2Z"/><path d="M360.07,150c-44.4,0-82.92,16.1-114.76,47.94s-47.95,70.35-47.95,114.77,16.11,82.92,47.95,114.76,70.36,46.9,114.76,47.56c88.05,1.3,163.76-75.06,162.72-162.32-.53-44.81-16.12-82.93-47.95-114.77S404.88,150,360.07,150Zm84.11,247.21c-23.18,23.18-51.09,34.58-84.11,34.58-32.61,0-60.52-11.39-83.71-34.58s-34.59-51.49-34.59-84.5c0-32.62,11.4-60.92,34.59-84.12s51.1-35,83.71-35c33,0,60.93,11.79,84.11,35s35,51.5,35,84.12C479.16,345.75,467.37,374.05,444.18,397.24Z"/><g class="cls-2"><path class="cls-3" d="M317,252a83.92,83.92,0,0,1,20.63-5.26c5.61-.69,8.4-1,11.5-.38,10.66,2,19.35,13.27,22.31,24.06,2.91,10.6-1.1,16.14,4.56,24.58,1.21,1.8,1.61,1.88,6.69,7.85,0,0,3.81,5.37,10.39,12.8a208.42,208.42,0,0,1,45.36,84.84c.67,2.55,1.21,5.56-.48,7.59-.81,1-2,1.6-2.63,2.72-.71,1.38-.22,3.05.32,4.51,9.55,26.13,27.07,48.43,41.28,72.35,2.44,4.11,4.54,10,.85,13.09-2.18,1.81-5.54,1.49-8,0s-4.13-3.85-5.76-6.17c-.09,1.53-2,2.37-3.51,1.91a7.68,7.68,0,0,1-3.43-2.95c-7.56-9.7-15.13-19.43-21.49-29.95-4.8-7.93-8.9-16.31-14.39-23.78A78.73,78.73,0,0,0,383,412a3.5,3.5,0,0,0-5.41,2.67C375,422,375,421.82,375,422c-.18,6.65,13.28,12.51,13,13-.2.34-5.91-3.63-8-2s.62,8.8,0,9-2.05-6.59-5-7c-3.52-.49-7.38,8.31-8,8-.81-.41,8.83-13.69,4.65-23.48-1.71-4-5.75-7.62-10.25-7.9-5.51-.35-9.64,4-12.22,6.74C340.63,427.53,340,439.68,340,445c.1-2.15.12-4.49,0-7a72.05,72.05,0,0,0-1-9,24.66,24.66,0,0,0-6.76,4.45,13.5,13.5,0,0,0-3.41,4.46A11.68,11.68,0,0,0,328,441l7-13-14,2c3.87-1.6,7.95-3.48,12.18-5.68a155.44,155.44,0,0,0,19.71-12.23c-34.06-17.67-54.32-58.62-47.71-96.41A130.57,130.57,0,0,1,308,302.9c2.34-4.13,4-3.62,5-6.9,1.41-4.65-.88-9.09-1.17-15.2-.12-2.47-.07-3.94-.07-3.94,0-.78,0-1.7.1-2.88a4.82,4.82,0,0,0-3.43-5.84l-20.37-10.25,21.5-3.26a25,25,0,0,0,5.44-1.24,22.93,22.93,0,0,0,5.43-3c2.41-1.78,7.86-3.7,21.26-4.2"/><path d="M317.4,253.45c9.27-3.6,21.32-7.41,31.33-5.64,11.3,2,19.38,14.15,21.67,24.64,1.83,8.38-.63,16.73,4.87,24.1,3.46,4.64,7.47,9,11.13,13.54,7.85,9.68,16.09,18.83,23,29.27a208.94,208.94,0,0,1,17.11,31.37q3.86,8.79,6.86,17.92,1.33,4,2.51,8.14c1.25,4.38,2.65,7.48-.36,11.54-2.65,3.59-2,5.6-.39,9.82a166.71,166.71,0,0,0,7.32,16.11c6.26,12.12,13.74,23.53,21.14,35,3.79,5.85,7.6,11.7,11.16,17.69,1.44,2.43,4.44,6.62,3.53,9.58l-2.19,2q-2.06,3.58-5.5,1c-2.24-1.26-3.78-3.6-5.22-5.63a1.52,1.52,0,0,0-2.74.36c-1.18,3.13-6.39-4.2-6.71-4.61-1.81-2.33-3.61-4.66-5.38-7-2.6-3.43-5.14-6.9-7.58-10.44-5.07-7.36-9.32-15.15-13.83-22.84-8-13.59-18.33-25.09-32.2-32.82-3.89-2.16-13.25-8.14-17.87-6.14-3.19,1.38-4.92,7.83-5.4,10.91s1.17,5.47,3.14,7.53a31.09,31.09,0,0,0,5.28,4.21,30.26,30.26,0,0,0,3.07,1.91c.4.19,1.82,1.49,1.41.5l1.45-1.9c-2.37-.09-5.76-4.13-8.91-1.68-1.17.91-1.36,2.37-1.43,3.76s1.37,5,1,5.66l2.06-.54c-.45-.24-1.66-4.14-2.52-5.16a4.54,4.54,0,0,0-3.95-2c-1.9.17-3.36,1.76-4.51,3.11-.67.79-2.73,4.78-3.18,4.92l1.7.69c.53,1.2.65-.29,1.24-1.49s1.27-2.63,1.84-4a31.07,31.07,0,0,0,2.81-11.1c.23-7.25-4.88-15-12.59-15.53s-14.37,7-17.88,13.11c-3.8,6.57-5.24,14.21-5.22,21.74a1.5,1.5,0,0,0,3,0,82.62,82.62,0,0,0-1.05-16.4,1.52,1.52,0,0,0-2.21-.9c-5.48,2.68-10.52,6.63-11.69,12.9-.29,1.58,1.89,2.75,2.75,1.16q3.49-6.51,7-13a1.53,1.53,0,0,0-1.7-2.21l-14,2,.8,2.9a162,162,0,0,0,32.24-18.07,1.52,1.52,0,0,0,0-2.59c-23.09-12.23-39.67-34.63-45.74-60a90.53,90.53,0,0,1-.25-40.05,40.85,40.85,0,0,1,1.61-6.83c.88-2.16,2.78-3.29,4.05-5.16,3-4.4,1.08-10,.39-14.75-.64-4.33,1.33-12.26-2-15.57-2.35-2.33-6.4-3.57-9.31-5l-13.58-6.83-.36,2.74c10.71-1.62,23.14-1.61,32.49-7.49,6-3.78,13.85-3.87,20.74-4.17,1.92-.08,1.93-3.08,0-3-6.8.29-14.87.38-21,3.77-4.18,2.3-7.59,4.13-12.49,4.89-6.84,1-13.69,2.07-20.53,3.11a1.51,1.51,0,0,0-.36,2.74l11,5.55c3.14,1.58,7.89,3,10.49,5.32,2.36,2.13,1.39,5.66,1.43,8.46a64.51,64.51,0,0,0,1.21,10.08c.64,3.82.71,6.74-1.85,9.79a16.3,16.3,0,0,0-3.14,4.37c-1.89,4.75-2.52,10.53-3.22,15.56-3.34,24.07,3.79,49.11,18.2,68.55a91.49,91.49,0,0,0,30.67,26.51v-2.59a158.26,158.26,0,0,1-31.53,17.76,1.51,1.51,0,0,0,.8,2.9l14-2-1.7-2.21q-3.49,6.51-7,13l2.75,1.16c1-5.53,5.51-8.76,10.31-11.1l-2.21-.9a77.62,77.62,0,0,1,.95,15.6h3a41.2,41.2,0,0,1,3.76-18.27c3.23-6.61,11.49-17.05,19.85-12.4,7.84,4.36,6.64,13.61,3.82,20.59-.8,2-4.25,6.53-3.23,8.84a1.53,1.53,0,0,0,1.7.69c2.55-.82,3.13-4.92,5.16-6.47,4.69-3.56,4.11,3.91,6.68,5.32a1.53,1.53,0,0,0,2.06-.54c1.1-2.34-1.46-5.07-.6-7.41,1.12-3.08,4.95,1.06,7.3,1.15a1.51,1.51,0,0,0,1.45-1.9c-.92-2.21-4.9-3.5-6.72-4.78-3.56-2.49-6.68-5.3-5.77-8.94,1-4,2.3-7.85,7.14-6.95,3.83.71,7.9,3.25,11.3,5.14a77.65,77.65,0,0,1,19.16,15c11.36,12.25,17.8,28.25,27.38,41.81,4.6,6.5,9.31,13.34,14.61,19.31,2.67,3,7.21,4.42,9-.22l-2.74.36c2.47,3.47,5.23,7.19,9.71,7.95,4.07.7,7.83-1.47,8.64-5.61.85-4.37-1.65-8.71-3.79-12.3-3.86-6.5-8-12.82-12.11-19.16-7.55-11.67-15.15-23.36-21.37-35.81-1.75-3.5-3.39-7.05-4.87-10.67-.59-1.42-1.7-3.33-1.89-4.86-1-7.76.77-3,2.17-6.07,2.34-5.22.38-10-1.21-15.31a210.75,210.75,0,0,0-36.27-69.79c-6.77-8.6-13.81-17.23-21-25.44-2.39-2.72-4.61-5.13-5.73-8.72-1.63-5.24-.47-11-1.4-16.37-1.93-11.06-9.44-22.85-20.17-27.14-5.73-2.29-11.73-1.43-17.67-.58a87.46,87.46,0,0,0-19.16,5.06c-1.78.69-1,3.6.8,2.9Z"/></g></g></g></svg>