<svg xmlns="http://www.w3.org/2000/svg" xmlns:xlink="http://www.w3.org/1999/xlink" viewBox="0 0 722 567.45"><defs><style>.cls-1{fill:none;}.cls-2{clip-path:url(#clip-path);}.cls-3{fill:#04bf68;}</style><clipPath id="clip-path"><circle class="cls-1" cx="361.5" cy="312.5" r="118.5"/></clipPath></defs><title>Recurso 8</title><g id="Capa_2" data-name="Capa 2"><g id="Capa_1-2" data-name="Capa 1"><path d="M685.84,95.56H533.58l-5.1-36-3.91-24.29c-1.58-9.78-6.76-17.89-14.89-24.67C501.36,3.63,492.45,0,482.66,0H237.49q-14.69,0-27,10.57a39.83,39.83,0,0,0-14.09,24.67l-3.92,24.29-5.48,36H36.16C16.12,95.56,0,111.66,0,130.9V531.3a36.15,36.15,0,0,0,36.15,36.15H685.84A36.16,36.16,0,0,0,722,531.29V130.9C722,111.66,705.88,95.56,685.84,95.56ZM678.35,523.8H43.65V138H187.1c21.62,0,40.29-15.89,43.24-36.51l5.1-35.73,3.93-22.14H483.05l3.54,22.14,5.5,35.73c3.17,20.58,22,36.51,42.85,36.51H678.35V523.8Z"/><path d="M608.08,241.2c18.86,0,34.58-16.11,34.58-35,0-19.26-15.33-35.38-34.58-35.38S573.49,187,573.49,206.23C573.49,225.09,589.21,241.2,608.08,241.2Z"/><path d="M360.07,150c-44.4,0-82.92,16.1-114.76,47.94s-47.95,70.35-47.95,114.77,16.11,82.92,47.95,114.76,70.36,46.9,114.76,47.56c88.05,1.3,163.76-75.06,162.72-162.32-.53-44.81-16.12-82.93-47.95-114.77S404.88,150,360.07,150Zm84.11,247.21c-23.18,23.18-51.09,34.58-84.11,34.58-32.61,0-60.52-11.39-83.71-34.58s-34.59-51.49-34.59-84.5c0-32.62,11.4-60.92,34.59-84.12s51.1-35,83.71-35c33,0,60.93,11.79,84.11,35s35,51.5,35,84.12C479.16,345.75,467.37,374.05,444.18,397.24Z"/><g class="cls-2"><path class="cls-3" d="M317,252a83.92,83.92,0,0,1,20.63-5.26c5.61-.69,8.4-1,11.5-.38,10.66,2,19.35,13.27,22.31,24.06,2.91,10.6-1.1,16.14,4.56,24.58,1.21,1.8,1.61,1.88,6.69,7.85,0,0,3.81,5.37,10.39,12.8a208.42,208.42,0,0,1,45.36,84.84c.67,2.55,1.21,5.56-.48,7.59-.81,1-2,1.6-2.63,2.72-.71,1.38-.22,3.05.32,4.51,9.55,26.13,27.07,48.43,41.28,72.35,2.44,4.11,4.54,10,.85,13.09-2.18,1.81-5.54,1.49-8,0s-4.13-3.85-5.76-6.17c-.09,1.53-2,2.37-3.51,1.91a7.68,7.68,0,0,1-3.43-2.95c-7.56-9.7-15.13-19.43-21.49-29.95-4.8-7.93-8.9-16.31-14.39-23.78A78.73,78.73,0,0,0,383,412a3.5,3.5,0,0,0-5.41,2.67C375,422,375,421.82,375,422c-.18,6.65,13.28,12.51,13,13-.2.34-5.91-3.63-8-2s.62,8.8,0,9-2.05-6.59-5-7c-3.52-.49-7.38,8.31-8,8-.81-.41,8.83-13.69,4.65-23.48-1.71-4-5.75-7.62-10.25-7.9-5.51-.35-9.64,4-12.22,6.74C340.63,427.53,340,439.68,340,445c.1-2.15.12-4.49,0-7a72.05,72.05,0,0,0-1-9,24.66,24.66,0,0,0-6.76,4.45,13.5,13.5,0,0,0-3.41,4.46A11.68,11.68,0,0,0,328,441l7-13-14,2c3.87-1.6,7.95-3.48,12.18-5.68a155.44,155.44,0,0,0,19.71-12.23c-34.06-17.67-54.32-58.62-47.71-96.41A130.57,130.57,0,0,1,308,302.9c2.34-4.13,4-3.62,5-6.9,1.41-4.65-.88-9.09-1.17-15.2-.12-2.47-.07-3.94-.07-3.94,0-.78,0-1.7.1-2.88a4.82,4.82,0,0,0-3.43-5.84l-20.37-10.25,21.5-3.26a25,25,0,0,0,5.44-1.24,22.93,22.93,0,0,0,5.43-3c2.41-1.78,7.86-3.7,21.26-4.2"/><path d="M317.8,254.89c9-3.5,20.77-7.27,30.53-5.64,10.79,1.8,18.48,13.66,20.62,23.6,1.85,8.57-.56,16.87,5,24.46,3.5,4.75,7.64,9.24,11.37,13.84,7.77,9.59,15.92,18.63,22.76,29a208.48,208.48,0,0,1,17.1,31.37q3.78,8.61,6.72,17.57,1.33,4,2.5,8.13c1.08,3.78,2.51,6.66,0,10.09-3,4.12-2.65,6.44-.77,11.28A169.14,169.14,0,0,0,441.14,435c6.26,12.12,13.75,23.53,21.15,35,3.78,5.85,7.6,11.7,11.16,17.69,1.29,2.18,4.2,6.15,3.32,8.82-.76,2.33-3.69,2.67-5.44,1.68-2-1.12-3.39-3.27-4.68-5.08a3,3,0,0,0-5.48.71c.18-.47-3.8-4.76-4.2-5.27-1.73-2.23-3.45-4.46-5.15-6.71-2.59-3.44-5.14-6.91-7.58-10.45-5.07-7.36-9.32-15.15-13.83-22.84-8.08-13.8-18.65-25.51-32.74-33.36-4.46-2.48-13.72-8.32-19-6.29-3.91,1.5-5.75,8.28-6.44,12-.66,3.46,1.18,6.55,3.52,9a33.13,33.13,0,0,0,5.58,4.43,21.33,21.33,0,0,0,3.08,1.91c1.47.66,1.67,1.92.72-.39L388,432c2,.08-.51-.51-1.31-.87a21,21,0,0,0-2.61-1.06c-2-.56-4.19-.75-5.9.57a6.13,6.13,0,0,0-2,4.94,19.37,19.37,0,0,0,.36,3.29c.19,1.2,0,3.58.89,1.62l4.1-1.08c1.44.78.38-.2-.15-1.35a16.19,16.19,0,0,0-1.83-3.28c-1.32-1.68-3-2.91-5.24-2.76s-4.12,1.87-5.57,3.55a32.4,32.4,0,0,0-2.24,3.09c-.85,1.28-2.23,2.07-.28,1.45l3.39,1.38c1,2.14.06,2.45,1.25,0,.69-1.43,1.37-2.86,2-4.32a32.55,32.55,0,0,0,2.86-11.5c.25-8-5.47-16.34-13.89-17s-15.53,7.17-19.37,13.83S337,437.21,337,445c0,3.87,5.86,3.85,6,0a83.62,83.62,0,0,0-1.11-16.8c-.34-2.05-2.84-2.55-4.4-1.79-5.81,2.83-11.15,7.17-12.38,13.79-.59,3.16,3.77,5.5,5.48,2.31q3.5-6.5,7-13c1.35-2.5-.86-4.76-3.39-4.4l-14,2,1.6,5.78a163.52,163.52,0,0,0,32.6-18.21c1.71-1.24,2.16-4,0-5.18-22.77-12.07-39.07-34.1-45-59.07a88.88,88.88,0,0,1-.26-39.25c.45-2.15.73-4.8,1.62-6.83s2.61-3,3.77-4.65c3.34-4.77,1.46-10.62.69-15.86-.71-4.84,1.42-12.71-2.4-16.43-2.51-2.44-6.54-3.73-9.62-5.27l-13.58-6.84-.71,5.49c10.86-1.65,23.36-1.68,32.84-7.64,5.79-3.64,13.37-3.68,20-4,3.84-.17,3.86-6.17,0-6-7.07.31-15.39.44-21.77,4-4.08,2.26-7.34,4-12.13,4.74C301,253,294.1,254,287.26,255c-2.54.39-2.9,4.39-.72,5.48l11,5.56q2.55,1.27,5.09,2.56c1.5.75,4.28,1.52,5.41,2.76,1.58,1.74.65,4.92.68,7.16A67.09,67.09,0,0,0,310,289c.55,3.27.68,5.73-1.47,8.33-1.33,1.62-2.76,3-3.52,5-1.85,4.88-2.53,10.62-3.24,15.76-3.38,24.39,3.77,49.8,18.38,69.51a93.3,93.3,0,0,0,31.2,27.05V409.5a157.43,157.43,0,0,1-31.17,17.61,3,3,0,0,0,1.6,5.78l14-2-3.39-4.4q-3.5,6.5-7,13l5.48,2.31c1-5.16,5.15-8,9.62-10.21l-4.4-1.79A75.82,75.82,0,0,1,337,445h6a39.65,39.65,0,0,1,3.55-17.51c2.81-5.78,10.34-16,17.81-11.87,7.2,4,5.69,12.61,3.12,18.91-1.15,2.82-4.46,6.84-3.07,10a3,3,0,0,0,3.39,1.38c3.17-1,3.19-5.39,5.82-6.84,1.88-1,2,1.09,2.87,2.79.55,1.1.82,2.11,2,2.75a3,3,0,0,0,4.1-1.08c1.19-2.51-.39-5.33-.42-8,0-.33-1.42-.54.31.31.78.38,1.63.69,2.42,1.06A8.26,8.26,0,0,0,388,438c1.77.07,3.63-2,2.89-3.8-1.14-2.78-5.1-4.05-7.41-5.68-2.11-1.48-4.27-3.19-5.34-5.6-.86-1.94-.21.09-.15-.48a4.49,4.49,0,0,1,.42-1.16c.57-1.33.77-2.91,1.46-4.16,1.28-2.33,1.43-2.2,3.83-1.75,3.72.71,7.65,3.16,10.95,5a76,76,0,0,1,18.85,14.81c11.26,12.13,17.64,28,27.14,41.49,4.68,6.61,9.47,13.56,14.85,19.62,3.51,4,9.32,4.81,11.46-.88l-5.48.72c2.79,3.92,5.93,8,11,8.69,4.91.71,9.34-2.12,10.14-7.11.75-4.69-1.68-9.17-4-13.06-3.86-6.49-8-12.82-12.11-19.16-7.56-11.67-15.16-23.36-21.38-35.81-1.69-3.38-3.28-6.81-4.72-10.31-1.6-3.9-2.47-6.12.13-9.77,3.38-4.74.4-11.58-1.06-16.46a212.4,212.4,0,0,0-36.65-70.46c-6.77-8.6-13.81-17.23-21-25.44-2.23-2.54-4.28-4.72-5.34-8.06-1.65-5.19-.47-11-1.41-16.37-2-11.57-10-23.77-21.21-28.18-5.89-2.32-12-1.5-18.07-.64a87.53,87.53,0,0,0-19.56,5.12c-3.56,1.38-2,7.18,1.6,5.78Z"/></g></g></g></svg>