<svg xmlns="http://www.w3.org/2000/svg" xmlns:xlink="http://www.w3.org/1999/xlink" viewBox="0 0 722 567.45"><defs><style>.cls-1{fill:none;}.cls-2{clip-path:url(#clip-path);}.cls-3{fill:#04bf68;}</style><clipPath id="clip-path"><circle class="cls-1" cx="361.5" cy="312.5" r="118.5"/></clipPath></defs><title>Recurso 9</title><g id="Capa_2" data-name="Capa 2"><g id="Capa_1-2" data-name="Capa 1"><path d="M685.84,95.56H533.58l-5.1-36-3.91-24.29c-1.58-9.78-6.76-17.89-14.89-24.67C501.36,3.63,492.45,0,482.66,0H237.49q-14.69,0-27,10.57a39.83,39.83,0,0,0-14.09,24.67l-3.92,24.29-5.48,36H36.16C16.12,95.56,0,111.66,0,130.9V531.3a36.15,36.15,0,0,0,36.15,36.15H685.84A36.16,36.16,0,0,0,722,531.29V130.9C722,111.66,705.88,95.56,685.84,95.56ZM678.35,523.8H43.65V138H187.1c21.62,0,40.29-15.89,43.24-36.51l5.1-35.73,3.93-22.14H483.05l3.54,22.14,5.5,35.73c3.17,20.58,22,36.51,42.85,36.51H678.35V523.8Z"/><path d="M608.08,241.2c18.86,0,34.58-16.11,34.58-35,0-19.26-15.33-35.38-34.58-35.38S573.49,187,573.49,206.23C573.49,225.09,589.21,241.2,608.08,241.2Z"/><path d="M360.07,150c-44.4,0-82.92,16.1-114.76,47.94s-47.95,70.35-47.95,114.77,16.11,82.92,47.95,114.76,70.36,46.9,114.76,47.56c88.05,1.3,163.76-75.06,162.72-162.32-.53-44.81-16.12-82.93-47.95-114.77S404.88,150,360.07,150Zm84.11,247.21c-23.18,23.18-51.09,34.58-84.11,34.58-32.61,0-60.52-11.39-83.71-34.58s-34.59-51.49-34.59-84.5c0-32.62,11.4-60.92,34.59-84.12s51.1-35,83.71-35c33,0,60.93,11.79,84.11,35s35,51.5,35,84.12C479.16,345.75,467.37,374.05,444.18,397.24Z"/><g class="cls-2"><path class="cls-3" d="M317,252a83.92,83.92,0,0,1,20.63-5.26c5.61-.69,8.4-1,11.5-.38,10.66,2,19.35,13.27,22.31,24.06,2.91,10.6-1.1,16.14,4.56,24.58,1.21,1.8,1.61,1.88,6.69,7.85,0,0,3.81,5.37,10.39,12.8a208.42,208.42,0,0,1,45.36,84.84c.67,2.55,1.21,5.56-.48,7.59-.81,1-2,1.6-2.63,2.72-.71,1.38-.22,3.05.32,4.51,9.55,26.13,27.07,48.43,41.28,72.35,2.44,4.11,4.54,10,.85,13.09-2.18,1.81-5.54,1.49-8,0s-4.13-3.85-5.76-6.17c-.09,1.53-2,2.37-3.51,1.91a7.68,7.68,0,0,1-3.43-2.95c-7.56-9.7-15.13-19.43-21.49-29.95-4.8-7.93-8.9-16.31-14.39-23.78A78.73,78.73,0,0,0,383,412a3.5,3.5,0,0,0-5.41,2.67C375,422,375,421.82,375,422c-.18,6.65,13.28,12.51,13,13-.2.34-5.91-3.63-8-2s.62,8.8,0,9-2.05-6.59-5-7c-3.52-.49-7.38,8.31-8,8-.81-.41,8.83-13.69,4.65-23.48-1.71-4-5.75-7.62-10.25-7.9-5.51-.35-9.64,4-12.22,6.74C340.63,427.53,340,439.68,340,445c.1-2.15.12-4.49,0-7a72.05,72.05,0,0,0-1-9,24.66,24.66,0,0,0-6.76,4.45,13.5,13.5,0,0,0-3.41,4.46A11.68,11.68,0,0,0,328,441l7-13-14,2c3.87-1.6,7.95-3.48,12.18-5.68a155.44,155.44,0,0,0,19.71-12.23c-34.06-17.67-54.32-58.62-47.71-96.41A130.57,130.57,0,0,1,308,302.9c2.34-4.13,4-3.62,5-6.9,1.41-4.65-.88-9.09-1.17-15.2-.12-2.47-.07-3.94-.07-3.94,0-.78,0-1.7.1-2.88a4.82,4.82,0,0,0-3.43-5.84l-20.37-10.25,21.5-3.26a25,25,0,0,0,5.44-1.24,22.93,22.93,0,0,0,5.43-3c2.41-1.78,7.86-3.7,21.26-4.2"/><path d="M318.2,256.34c8.77-3.41,20.23-7.14,29.73-5.64,10.28,1.62,17.57,13.14,19.58,22.55,1.86,8.74-.49,17,5.17,24.81,3.54,4.88,7.79,9.46,11.6,14.15,7.7,9.49,15.76,18.44,22.52,28.66a208.94,208.94,0,0,1,17.11,31.37c2.46,5.62,4.63,11.38,6.56,17.2,1.37,4.14,5.72,13.06,2.92,16.77-3.4,4.5-3.22,7.43-1.16,12.74a173,173,0,0,0,7.62,16.83c6.26,12.11,13.74,23.53,21.14,35,3.79,5.86,7.6,11.7,11.16,17.7,1,1.69,4.18,6,3.12,8.06-1.83,3.56-6.37-2.82-7.32-4.16a4.57,4.57,0,0,0-8.23,1.08q2.83-1.5.58-3L458,487.48c-1.65-2.13-3.29-4.26-4.91-6.41-2.59-3.44-5.14-6.9-7.58-10.45-5.07-7.35-9.32-15.14-13.83-22.84-8.21-14-19-25.92-33.28-33.89-4.88-2.72-14.39-8.63-20.18-6.44-4.57,1.72-6.59,8.64-7.49,13-.82,4,1.2,7.62,3.91,10.46a35.81,35.81,0,0,0,5.88,4.67,23.91,23.91,0,0,0,3.08,1.91c2.09,1,1.43,2.1,0-1.29l4.34-5.7c3,.11,1,0-.56-.66a21.25,21.25,0,0,0-3-1.21c-2.42-.71-5.11-.78-7.2.84a7.54,7.54,0,0,0-2.61,6.11,20.73,20.73,0,0,0,.41,3.68c.11.64.24,1.27.38,1.9q.3,2.29.66-1.43l6.16-1.62c2,1.1,1.37,1.36.38-.81a17.8,17.8,0,0,0-1.82-3.28,7.63,7.63,0,0,0-6.54-3.5c-2.76.14-4.91,2-6.63,4a34.25,34.25,0,0,0-2.47,3.4c-.32.49-.64,1-.95,1.47q-1.33,1.77,1.56-.72l5.09,2.07-.05-.11.45,3.47c.17-.9,2.21-4.68,3-6.52a33.56,33.56,0,0,0,2.92-11.89c.27-8.8-6.06-17.64-15.19-18.48s-16.73,7.37-20.87,14.54S335.47,437,335.5,445c0,5.81,8.79,5.78,9,0a86.2,86.2,0,0,0-1.16-17.2c-.51-3.08-4.27-3.83-6.61-2.69-6.13,3-11.77,7.71-13.07,14.69-.88,4.74,5.66,8.24,8.23,3.47q3.5-6.5,7-13c2-3.75-1.3-7.15-5.09-6.61l-14,2,2.4,8.68a165.18,165.18,0,0,0,33-18.37c2.57-1.85,3.23-6.05,0-7.77-22.45-11.89-38.47-33.55-44.37-58.17a87.08,87.08,0,0,1-.25-38.45c.44-2.09.67-4.88,1.61-6.83.78-1.6,2.46-2.66,3.51-4.14,3.66-5.18,1.82-11.25,1-17-.79-5.39,1.47-13.11-2.81-17.29-2.61-2.55-6.72-3.9-9.92-5.51L290.33,254l-1.07,8.22c11-1.67,23.58-1.74,33.2-7.79,5.55-3.49,12.88-3.49,19.23-3.76,5.77-.25,5.8-9.25,0-9-7.34.32-15.91.49-22.53,4.18-4,2.21-7.08,3.86-11.77,4.58-6.84,1.06-13.69,2.08-20.53,3.11-3.82.58-4.35,6.58-1.07,8.23l11,5.55,5.1,2.56c1.28.65,4.59,1.58,5.4,2.76s-.08,4.36-.06,5.87a69.54,69.54,0,0,0,1.31,10.87c.47,2.8.61,4.68-1.08,6.88-1.43,1.88-3.07,3.39-3.91,5.69-1.82,5-2.54,10.72-3.26,16-3.41,24.71,3.74,50.49,18.55,70.47A94.89,94.89,0,0,0,350.61,416V408.2a155.32,155.32,0,0,1-30.81,17.46c-5.35,2.25-3.39,9.51,2.4,8.68l14-2-5.09-6.61q-3.5,6.5-7,13l8.23,3.47c.89-4.78,4.79-7.3,8.93-9.31l-6.61-2.69a74,74,0,0,1,.84,14.8h9a38.18,38.18,0,0,1,3.35-16.76c2.36-4.91,9.23-14.88,15.75-11.32s4.74,11.62,2.43,17.21c-1.45,3.53-4.65,7.23-2.92,11.14a4.53,4.53,0,0,0,5.09,2.07,6.45,6.45,0,0,0,3.42-2.83c.75-1,2.89-3.25,3.06-4.4l.68-.69q-2.69-.9-1.29.72a7.7,7.7,0,0,0,1,2.1c.68,1.48,1.12,2.79,2.68,3.65,2,1.08,5.09.63,6.16-1.62a6.76,6.76,0,0,0,.51-4.08c-.09-.8-.29-4-.76-4.44,0-.72-.33-.55-1.11.52-1.34.56-1.49.9-.45,1,.26.36,1.66.72,2.06.9A10,10,0,0,0,388,439.5c2.66.1,5.45-3,4.34-5.7-1.38-3.35-5.3-4.59-8.1-6.57a20.82,20.82,0,0,1-4.66-4.71c-.78-1-.26,1-.14.32a6.25,6.25,0,0,1,.41-1.17c.61-1.32,1-2.79,1.47-4.16.69-1.9.22-1.69,2-.69,3.32,1.89,7.2,2.95,10.59,4.84a74.91,74.91,0,0,1,18.55,14.58c11.17,12,17.48,27.85,26.91,41.19,4.74,6.71,9.61,13.77,15.08,19.92,4.34,4.9,11.44,5.17,14-1.54l-8.22,1.07c3.11,4.38,6.62,8.73,12.3,9.44s10.83-2.78,11.64-8.61c.69-5-1.73-9.66-4.2-13.82-3.86-6.49-8-12.81-12.1-19.15-7.56-11.67-15.16-23.36-21.38-35.82-1.63-3.26-3.18-6.57-4.57-9.95-.5-1.21-1.9-3.54-1.88-4.85,0-2.25.76-2.18,1.86-3.77,3.6-5.2.7-12.22-.91-17.61a214.21,214.21,0,0,0-37-71.12c-6.77-8.6-13.81-17.23-21-25.44-2.3-2.61-3.82-3.89-5-7.4-1.68-5.13-.46-11-1.41-16.37-2.15-12.08-10.52-24.69-22.27-29.23-6-2.34-12.2-1.56-18.46-.69a88.83,88.83,0,0,0-20,5.17c-5.34,2.07-3,10.78,2.4,8.68Z"/></g></g></g></svg>